<svg xmlns="http://www.w3.org/2000/svg" viewBox="0 0 61.13684 64.67368"><defs><style>.cls-1{fill:#4d9e64;opacity:0.88;}.cls-2{fill:#448c56;}.cls-3{fill:#efefef;}.cls-4{fill:#424242;}</style></defs><title>HappyButton</title><g id="КНОПКЕЕЕ"><ellipse class="cls-1" cx="30.09105" cy="31.84861" rx="24.74752" ry="28.86183"/><path class="cls-2" d="M44.82545,8.58135a30.696,30.696,0,0,1,9.641,22.85348c0,15.93993-11.07984,28.86181-24.7475,28.86181a22.11015,22.11015,0,0,1-13.0661-4.353,22.48642,22.48642,0,0,0,15.10622,6.00812c13.66767,0,24.74751-12.92188,24.74751-28.86181C56.50659,22.74538,51.83722,13.6769,44.82545,8.58135Z"/><path class="cls-3" d="M21.97215,57.02573c-6.3705-3.47456-11.34319-10.226-12.997-18.84948C6.1421,23.40344,14.114,8.7492,26.78091,5.44511A20.22955,20.22955,0,0,1,39.664,6.32075,20.3792,20.3792,0,0,0,24.596,4.40439C11.92908,7.70849,3.95718,22.36272,6.79027,37.13554,8.62886,46.72264,14.56812,53.99834,21.97215,57.02573Z"/><path class="cls-4" d="M30.09109,43.42776c-6.50006,0-11.86268-4.04849-12.7594-9.31031a9.20342,9.20342,0,0,0-.14662,1.55176c0,5.99886,5.77822,10.86185,12.906,10.86185S42.997,41.66807,42.997,35.66921a9.20345,9.20345,0,0,0-.14672-1.55176C41.9536,39.37927,36.59116,43.42776,30.09109,43.42776Z"/><polygon class="cls-4" points="22.058 22.668 26.978 27.997 27.026 27.997 22.092 18.913 17.185 27.947 22.058 22.668"/><polygon class="cls-4" points="37.847 22.668 42.767 27.997 42.814 27.997 37.88 18.913 32.974 27.947 37.847 22.668"/></g></svg>