<svg xmlns="http://www.w3.org/2000/svg" viewBox="0 0 65.91134 37.085"><defs><style>.cls-1{fill:#232323;}.cls-2,.cls-36,.cls-39{fill:none;stroke-miterlimit:10;}.cls-2{stroke:#5b5a59;stroke-width:0.5px;}.cls-10,.cls-11,.cls-12,.cls-13,.cls-14,.cls-15,.cls-16,.cls-17,.cls-18,.cls-19,.cls-20,.cls-21,.cls-22,.cls-23,.cls-24,.cls-25,.cls-26,.cls-27,.cls-28,.cls-29,.cls-3,.cls-30,.cls-31,.cls-32,.cls-33,.cls-34,.cls-4,.cls-5,.cls-6,.cls-7,.cls-8,.cls-9{fill:#db5233;}.cls-3{opacity:0;}.cls-4{opacity:0.03226;}.cls-5{opacity:0.06452;}.cls-6{opacity:0.09677;}.cls-7{opacity:0.12903;}.cls-8{opacity:0.16129;}.cls-9{opacity:0.19355;}.cls-10{opacity:0.22581;}.cls-11{opacity:0.25806;}.cls-12{opacity:0.29032;}.cls-13{opacity:0.32258;}.cls-14{opacity:0.35484;}.cls-15{opacity:0.3871;}.cls-16{opacity:0.41935;}.cls-17{opacity:0.45161;}.cls-18{opacity:0.48387;}.cls-19{opacity:0.51613;}.cls-20{opacity:0.54839;}.cls-21{opacity:0.58065;}.cls-22{opacity:0.6129;}.cls-23{opacity:0.64516;}.cls-24{opacity:0.67742;}.cls-25{opacity:0.70968;}.cls-26{opacity:0.74194;}.cls-27{opacity:0.77419;}.cls-28{opacity:0.80645;}.cls-29{opacity:0.83871;}.cls-30{opacity:0.87097;}.cls-31{opacity:0.90323;}.cls-32{opacity:0.93548;}.cls-33{opacity:0.96774;}.cls-35{fill:#b3d6e0;opacity:0.18;}.cls-36,.cls-39{stroke:#b3d6e0;}.cls-36,.cls-38{opacity:0.51;}.cls-37{fill:#fff;}</style></defs><title>lampRedOn</title><g id="КНОПКЕЕЕ"><path class="cls-1" d="M0,13.43959v-.65716s7.07-.58782,9.6707-.575c2.31347.01141,8.26443.575,8.26443.575v.65716s-6.06388-.56614-8.41065-.575C6.95709,12.85488,0,13.43959,0,13.43959Z"/><path class="cls-1" d="M0,21.27067v-.65715a30.00717,30.00717,0,0,0,5.80363.79406c2.31708.0114,12.15939-.79406,12.15939-.79406v.65715s-9.95541.80293-12.30584.79406A27.85763,27.85763,0,0,1,0,21.27067Z"/><polyline class="cls-2" points="17.693 20.949 18.346 19.149 17.016 17.177 18.346 14.85 17.693 12.823"/><ellipse class="cls-3" cx="37.73737" cy="16.35336" rx="19.92927" ry="31.07821" transform="translate(20.8773 53.86709) rotate(-89.22841)"/><ellipse class="cls-4" cx="37.73739" cy="16.35007" rx="19.35309" ry="30.1797" transform="translate(20.88062 53.86386) rotate(-89.22841)"/><ellipse class="cls-5" cx="37.73741" cy="16.34677" rx="18.77691" ry="29.28118" transform="translate(20.88394 53.86063) rotate(-89.22841)"/><ellipse class="cls-6" cx="37.73744" cy="16.34347" rx="18.20072" ry="28.38267" transform="translate(20.88726 53.85739) rotate(-89.22841)"/><ellipse class="cls-7" cx="37.73746" cy="16.34017" rx="17.62454" ry="27.48416" transform="translate(20.89058 53.85416) rotate(-89.22841)"/><ellipse class="cls-8" cx="37.73748" cy="16.33687" rx="17.04836" ry="26.58564" transform="translate(20.89391 53.85093) rotate(-89.22841)"/><ellipse class="cls-9" cx="37.7375" cy="16.33357" rx="16.47218" ry="25.68713" transform="translate(20.89723 53.84769) rotate(-89.22841)"/><ellipse class="cls-10" cx="37.73752" cy="16.33027" rx="15.89599" ry="24.78862" transform="translate(20.90055 53.84446) rotate(-89.22841)"/><ellipse class="cls-11" cx="37.73754" cy="16.32697" rx="15.31981" ry="23.8901" transform="translate(20.90387 53.84123) rotate(-89.22841)"/><ellipse class="cls-12" cx="37.73757" cy="16.32367" rx="14.74363" ry="22.99159" transform="translate(20.90719 53.83799) rotate(-89.22841)"/><ellipse class="cls-13" cx="37.73759" cy="16.32037" rx="14.16745" ry="22.09308" transform="translate(20.91051 53.83476) rotate(-89.22841)"/><ellipse class="cls-14" cx="37.73761" cy="16.31707" rx="13.59127" ry="21.19456" transform="translate(20.91383 53.83153) rotate(-89.22841)"/><ellipse class="cls-15" cx="37.73763" cy="16.31377" rx="13.01508" ry="20.29605" transform="translate(20.91715 53.8283) rotate(-89.22841)"/><ellipse class="cls-16" cx="37.73765" cy="16.31047" rx="12.4389" ry="19.39754" transform="translate(20.92047 53.82506) rotate(-89.22841)"/><ellipse class="cls-17" cx="37.73768" cy="16.30717" rx="11.86272" ry="18.49902" transform="translate(20.92379 53.82183) rotate(-89.22841)"/><ellipse class="cls-18" cx="37.7377" cy="16.30388" rx="11.28654" ry="17.60051" transform="translate(20.92711 53.8186) rotate(-89.22841)"/><ellipse class="cls-19" cx="37.73772" cy="16.30058" rx="10.71035" ry="16.702" transform="translate(20.93043 53.81536) rotate(-89.22841)"/><ellipse class="cls-20" cx="37.73774" cy="16.29728" rx="10.13417" ry="15.80348" transform="translate(20.93375 53.81213) rotate(-89.22841)"/><ellipse class="cls-21" cx="37.73776" cy="16.29398" rx="9.55799" ry="14.90497" transform="translate(20.93707 53.8089) rotate(-89.22841)"/><ellipse class="cls-22" cx="37.73779" cy="16.29068" rx="8.98181" ry="14.00646" transform="translate(20.94039 53.80566) rotate(-89.22841)"/><ellipse class="cls-23" cx="37.73781" cy="16.28738" rx="8.40562" ry="13.10794" transform="translate(20.94371 53.80243) rotate(-89.22841)"/><ellipse class="cls-24" cx="37.73783" cy="16.28408" rx="7.82944" ry="12.20943" transform="translate(20.94703 53.7992) rotate(-89.22841)"/><ellipse class="cls-25" cx="37.73785" cy="16.28078" rx="7.25326" ry="11.31092" transform="translate(20.95035 53.79597) rotate(-89.22841)"/><ellipse class="cls-26" cx="37.73787" cy="16.27748" rx="6.67708" ry="10.4124" transform="translate(20.95368 53.79273) rotate(-89.22841)"/><ellipse class="cls-27" cx="37.73789" cy="16.27418" rx="6.10089" ry="9.51389" transform="translate(20.957 53.7895) rotate(-89.22841)"/><ellipse class="cls-28" cx="37.73792" cy="16.27088" rx="5.52471" ry="8.61538" transform="translate(20.96032 53.78627) rotate(-89.22841)"/><ellipse class="cls-29" cx="37.73794" cy="16.26758" rx="4.94853" ry="7.71686" transform="translate(20.96364 53.78303) rotate(-89.22841)"/><ellipse class="cls-30" cx="37.73796" cy="16.26428" rx="4.37235" ry="6.81835" transform="translate(20.96696 53.7798) rotate(-89.22841)"/><ellipse class="cls-31" cx="37.73798" cy="16.26098" rx="3.79616" ry="5.91984" transform="translate(20.97028 53.77657) rotate(-89.22841)"/><ellipse class="cls-32" cx="37.738" cy="16.25769" rx="3.21998" ry="5.02132" transform="translate(20.9736 53.77333) rotate(-89.22841)"/><ellipse class="cls-33" cx="37.73803" cy="16.25439" rx="2.6438" ry="4.12281" transform="translate(20.97692 53.7701) rotate(-89.22841)"/><ellipse class="cls-34" cx="37.73805" cy="16.25109" rx="2.06762" ry="3.2243" transform="translate(20.98024 53.76687) rotate(-89.22841)"/><g id="лампочка"><path class="cls-35" d="M26.208,28.41849l.00115-.174a20.33324,20.33324,0,0,0,3.30763.31058l15.88609.16928c8.53538.09095,15.55337-5.08076,15.59587-11.49245.04251-6.41185-6.90592-11.73222-15.4413-11.82317L29.67133,5.23945a20.293,20.293,0,0,0-3.31127.24006l.00042-.06355c.00722-1.089-1.17276-1.99249-2.62239-2.00794l-6.93792-.07393c-1.44943-.01544-2.64121.86278-2.64843,1.95178l-.1525,23.00253c-.00722,1.08885,1.17276,1.99235,2.62219,2.0078l6.93791.07392C25.009,30.38557,26.20076,29.50734,26.208,28.41849Z"/><path class="cls-36" d="M26.20839,28.35641l.00116-.174a20.33189,20.33189,0,0,0,3.30762.31059l15.88609.16927c8.53538.09095,15.55337-5.08075,15.59587-11.49245S54.09321,5.43759,45.55783,5.34664L29.67174,5.17737a20.293,20.293,0,0,0-3.31127.24006l.00042-.06355c.00722-1.089-1.17276-1.9925-2.62239-2.00794L16.80059,3.272c-1.44944-.01545-2.64122.86278-2.64844,1.95178l-.1525,23.00253c-.00722,1.08885,1.17276,1.99235,2.62219,2.00779l6.93792.07393C25.00939,30.32349,26.20117,29.44526,26.20839,28.35641Z"/><ellipse class="cls-37" cx="34.4844" cy="8.71648" rx="0.41438" ry="1.52619" transform="translate(25.38996 43.10314) rotate(-89.37115)"/><path class="cls-37" d="M47.41063,8.799c-5.3346-.05684-9.82144.35414-9.81888-.03237s4.49356-1.42414,9.82816-1.3673,9.48332,2.60615,9.48076,2.99266S52.74524,8.85581,47.41063,8.799Z"/><g class="cls-38"><path class="cls-39" d="M27.59519,22.43184c-.23982,3.54821-.67269,5.94824-1.15153,5.94314-.70122-.00747-1.23548-5.17-1.19331-11.53093s.6448-11.51134,1.346-11.50387c.40281.00429.75054,1.70975.96554,4.36628"/><path class="cls-39" d="M27.68151,10.79956c.10746,1.75539.12284,3.86031.10818,6.07155-.01062,1.60151-.05676,3.1263-.13106,4.51135"/></g></g></g></svg>