<svg xmlns="http://www.w3.org/2000/svg" viewBox="0 0 65.91134 37.085"><defs><style>.cls-1{fill:#232323;}.cls-2,.cls-4,.cls-7{fill:none;stroke-miterlimit:10;}.cls-2{stroke:#5b5a59;stroke-width:0.5px;}.cls-3{fill:#b3d6e0;opacity:0.18;}.cls-4,.cls-7{stroke:#b3d6e0;}.cls-4,.cls-6{opacity:0.51;}.cls-5{fill:#fff;}</style></defs><title>lampOff</title><g id="КНОПКЕЕЕ"><path class="cls-1" d="M0,13.43959v-.65716s7.07-.58782,9.6707-.575c2.31347.01141,8.26443.575,8.26443.575v.65716s-6.06388-.56614-8.41065-.575C6.95709,12.85488,0,13.43959,0,13.43959Z"/><path class="cls-1" d="M0,21.27067v-.65715a30.00717,30.00717,0,0,0,5.80363.79406c2.31708.0114,12.15939-.79406,12.15939-.79406v.65715s-9.95541.80293-12.30584.79406A27.85763,27.85763,0,0,1,0,21.27067Z"/><polyline class="cls-2" points="17.693 20.949 18.346 19.149 17.016 17.177 18.346 14.85 17.693 12.823"/><g id="лампочка"><path class="cls-3" d="M26.208,28.41849l.00115-.174a20.33324,20.33324,0,0,0,3.30763.31058l15.88609.16928c8.53538.09095,15.55337-5.08076,15.59587-11.49245.04251-6.41185-6.90592-11.73222-15.4413-11.82317L29.67133,5.23945a20.293,20.293,0,0,0-3.31127.24006l.00042-.06355c.00722-1.089-1.17276-1.99249-2.62239-2.00794l-6.93792-.07393c-1.44943-.01544-2.64121.86278-2.64843,1.95178l-.1525,23.00253c-.00722,1.08885,1.17276,1.99235,2.62219,2.0078l6.93791.07392C25.009,30.38557,26.20076,29.50734,26.208,28.41849Z"/><path class="cls-4" d="M26.20839,28.35641l.00116-.174a20.33189,20.33189,0,0,0,3.30762.31059l15.88609.16927c8.53538.09095,15.55337-5.08075,15.59587-11.49245S54.09321,5.43759,45.55783,5.34664L29.67174,5.17737a20.293,20.293,0,0,0-3.31127.24006l.00042-.06355c.00722-1.089-1.17276-1.9925-2.62239-2.00794L16.80059,3.272c-1.44944-.01545-2.64122.86278-2.64844,1.95178l-.1525,23.00253c-.00722,1.08885,1.17276,1.99235,2.62219,2.00779l6.93792.07393C25.00939,30.32349,26.20117,29.44526,26.20839,28.35641Z"/><ellipse class="cls-5" cx="34.4844" cy="8.71648" rx="0.41438" ry="1.52619" transform="translate(25.38996 43.10314) rotate(-89.37115)"/><path class="cls-5" d="M47.41063,8.799c-5.3346-.05684-9.82144.35414-9.81888-.03237s4.49356-1.42414,9.82816-1.3673,9.48332,2.60615,9.48076,2.99266S52.74524,8.85581,47.41063,8.799Z"/><g class="cls-6"><path class="cls-7" d="M27.59519,22.43184c-.23982,3.54821-.67269,5.94824-1.15153,5.94314-.70122-.00747-1.23548-5.17-1.19331-11.53093s.6448-11.51134,1.346-11.50387c.40281.00429.75054,1.70975.96554,4.36628"/><path class="cls-7" d="M27.68151,10.79956c.10746,1.75539.12284,3.86031.10818,6.07155-.01062,1.60151-.05676,3.1263-.13106,4.51135"/></g></g></g></svg>