<svg xmlns="http://www.w3.org/2000/svg" viewBox="0 0 65.91134 37.085"><defs><style>.cls-1{fill:#232323;}.cls-2,.cls-37,.cls-40{fill:none;stroke-miterlimit:10;}.cls-2{stroke:#5b5a59;stroke-width:0.5px;}.cls-3{opacity:0.88;}.cls-4{fill:#1a9437;opacity:0.09677;}.cls-5{fill:#1d953a;opacity:0.12591;}.cls-6{fill:#20973c;opacity:0.15505;}.cls-7{fill:#23983f;opacity:0.18418;}.cls-8{fill:#269a42;opacity:0.21332;}.cls-9{fill:#299b44;opacity:0.24246;}.cls-10{fill:#2c9d47;opacity:0.27159;}.cls-11{fill:#2f9e4a;opacity:0.30073;}.cls-12{fill:#32a04c;opacity:0.32986;}.cls-13{fill:#35a14f;opacity:0.359;}.cls-14{fill:#38a352;opacity:0.38814;}.cls-15{fill:#3ba454;opacity:0.41727;}.cls-16{fill:#3ea557;opacity:0.44641;}.cls-17{fill:#41a75a;opacity:0.47555;}.cls-18{fill:#44a85c;opacity:0.50468;}.cls-19{fill:#47aa5f;opacity:0.53382;}.cls-20{fill:#49ab62;opacity:0.56296;}.cls-21{fill:#4cad65;opacity:0.59209;}.cls-22{fill:#4fae67;opacity:0.62123;}.cls-23{fill:#52b06a;opacity:0.65036;}.cls-24{fill:#55b16d;opacity:0.6795;}.cls-25{fill:#58b26f;opacity:0.70864;}.cls-26{fill:#5bb472;opacity:0.73777;}.cls-27{fill:#5eb575;opacity:0.76691;}.cls-28{fill:#61b777;opacity:0.79605;}.cls-29{fill:#64b87a;opacity:0.82518;}.cls-30{fill:#67ba7d;opacity:0.85432;}.cls-31{fill:#6abb7f;opacity:0.88345;}.cls-32{fill:#6dbd82;opacity:0.91259;}.cls-33{fill:#70be85;opacity:0.94173;}.cls-34{fill:#73c087;opacity:0.97086;}.cls-35{fill:#76c18a;}.cls-36{fill:#b3d6e0;opacity:0.18;}.cls-37,.cls-40{stroke:#b3d6e0;}.cls-37,.cls-39{opacity:0.51;}.cls-38{fill:#fff;}</style></defs><title>lampGreenOn2</title><g id="КНОПКЕЕЕ"><path class="cls-1" d="M0,13.43959v-.65716s7.07-.58782,9.6707-.575c2.31347.01141,8.26443.575,8.26443.575v.65716s-6.06388-.56614-8.41065-.575C6.95709,12.85488,0,13.43959,0,13.43959Z"/><path class="cls-1" d="M0,21.27067v-.65715a30.00717,30.00717,0,0,0,5.80363.79406c2.31708.0114,12.15939-.79406,12.15939-.79406v.65715s-9.95541.80293-12.30584.79406A27.85763,27.85763,0,0,1,0,21.27067Z"/><polyline class="cls-2" points="17.693 20.949 18.346 19.149 17.016 17.177 18.346 14.85 17.693 12.823"/><g class="cls-3"><ellipse class="cls-4" cx="36.66234" cy="16.26046" rx="17.7518" ry="30.00381" transform="translate(19.93291 52.7112) rotate(-89.265)"/><ellipse class="cls-5" cx="36.69745" cy="16.22599" rx="17.24188" ry="29.13995" transform="translate(20.00206 52.71228) rotate(-89.26501)"/><ellipse class="cls-6" cx="36.73257" cy="16.19151" rx="16.73195" ry="28.2761" transform="translate(20.0712 52.71336) rotate(-89.26501)"/><ellipse class="cls-7" cx="36.76769" cy="16.15703" rx="16.22203" ry="27.41224" transform="translate(20.14034 52.71444) rotate(-89.26501)"/><ellipse class="cls-8" cx="36.80281" cy="16.12256" rx="15.7121" ry="26.54839" transform="translate(20.20949 52.71552) rotate(-89.26502)"/><ellipse class="cls-9" cx="36.83792" cy="16.08808" rx="15.20217" ry="25.68453" transform="translate(20.27863 52.7166) rotate(-89.26502)"/><ellipse class="cls-10" cx="36.87304" cy="16.0536" rx="14.69225" ry="24.82068" transform="translate(20.34778 52.71768) rotate(-89.26503)"/><ellipse class="cls-11" cx="36.90816" cy="16.01912" rx="14.18232" ry="23.95682" transform="translate(20.41692 52.71876) rotate(-89.26504)"/><ellipse class="cls-12" cx="36.94327" cy="15.98465" rx="13.6724" ry="23.09297" transform="translate(20.48607 52.71984) rotate(-89.26504)"/><ellipse class="cls-13" cx="36.97839" cy="15.95017" rx="13.16247" ry="22.22911" transform="translate(20.55521 52.72092) rotate(-89.26505)"/><ellipse class="cls-14" cx="37.01351" cy="15.91569" rx="12.65254" ry="21.36526" transform="translate(20.62436 52.72201) rotate(-89.26506)"/><ellipse class="cls-15" cx="37.04862" cy="15.88121" rx="12.14262" ry="20.5014" transform="translate(20.69351 52.72309) rotate(-89.26506)"/><ellipse class="cls-16" cx="37.08374" cy="15.84674" rx="11.63269" ry="19.63755" transform="translate(20.76265 52.72417) rotate(-89.26507)"/><ellipse class="cls-17" cx="37.11886" cy="15.81226" rx="11.12277" ry="18.77369" transform="translate(20.8318 52.72525) rotate(-89.26508)"/><ellipse class="cls-18" cx="37.15398" cy="15.77778" rx="10.61284" ry="17.90984" transform="translate(20.90095 52.72633) rotate(-89.26509)"/><ellipse class="cls-19" cx="37.18909" cy="15.7433" rx="10.10291" ry="17.04598" transform="translate(20.9701 52.72742) rotate(-89.26511)"/><ellipse class="cls-20" cx="37.22421" cy="15.70883" rx="9.59299" ry="16.18213" transform="translate(21.03925 52.7285) rotate(-89.26512)"/><ellipse class="cls-21" cx="37.25933" cy="15.67435" rx="9.08306" ry="15.31827" transform="translate(21.1084 52.72958) rotate(-89.26513)"/><ellipse class="cls-22" cx="37.29444" cy="15.63987" rx="8.57313" ry="14.45442" transform="translate(21.17755 52.73067) rotate(-89.26515)"/><ellipse class="cls-23" cx="37.32956" cy="15.6054" rx="8.06321" ry="13.59056" transform="translate(21.2467 52.73175) rotate(-89.26517)"/><ellipse class="cls-24" cx="37.36468" cy="15.57092" rx="7.55328" ry="12.72671" transform="translate(21.31586 52.73283) rotate(-89.26519)"/><ellipse class="cls-25" cx="37.3998" cy="15.53644" rx="7.04336" ry="11.86285" transform="matrix(0.01282, -0.99992, 0.99992, 0.01282, 21.38501, 52.73392)"/><ellipse class="cls-26" cx="37.43491" cy="15.50196" rx="6.53343" ry="10.999" transform="translate(21.45417 52.73501) rotate(-89.26524)"/><ellipse class="cls-27" cx="37.47003" cy="15.46749" rx="6.0235" ry="10.13514" transform="translate(21.52333 52.73609) rotate(-89.26527)"/><ellipse class="cls-28" cx="37.50515" cy="15.43301" rx="5.51358" ry="9.27129" transform="translate(21.5925 52.73718) rotate(-89.26531)"/><ellipse class="cls-29" cx="37.54026" cy="15.39853" rx="5.00365" ry="8.40743" transform="translate(21.66167 52.73828) rotate(-89.26535)"/><ellipse class="cls-30" cx="37.57538" cy="15.36405" rx="4.49373" ry="7.54358" transform="matrix(0.01282, -0.99992, 0.99992, 0.01282, 21.73085, 52.73937)"/><ellipse class="cls-31" cx="37.6105" cy="15.32958" rx="3.9838" ry="6.67972" transform="translate(21.80004 52.74047) rotate(-89.26548)"/><ellipse class="cls-32" cx="37.64561" cy="15.2951" rx="3.47387" ry="5.81587" transform="translate(21.86924 52.74157) rotate(-89.26558)"/><ellipse class="cls-33" cx="37.68073" cy="15.26062" rx="2.96395" ry="4.95201" transform="translate(21.93846 52.74269) rotate(-89.2657)"/><ellipse class="cls-34" cx="37.71585" cy="15.22615" rx="2.45402" ry="4.08816" transform="translate(22.00772 52.74382) rotate(-89.26589)"/><ellipse class="cls-35" cx="37.75097" cy="15.19167" rx="1.9441" ry="3.2243" transform="translate(22.07705 52.74497) rotate(-89.26617)"/></g><g id="лампочка"><path class="cls-36" d="M26.208,28.41849l.00115-.174a20.33324,20.33324,0,0,0,3.30763.31058l15.88609.16928c8.53538.09095,15.55337-5.08076,15.59587-11.49245.04251-6.41185-6.90592-11.73222-15.4413-11.82317L29.67133,5.23945a20.293,20.293,0,0,0-3.31127.24006l.00042-.06355c.00722-1.089-1.17276-1.99249-2.62239-2.00794l-6.93792-.07393c-1.44943-.01544-2.64121.86278-2.64843,1.95178l-.1525,23.00253c-.00722,1.08885,1.17276,1.99235,2.62219,2.0078l6.93791.07392C25.009,30.38557,26.20076,29.50734,26.208,28.41849Z"/><path class="cls-37" d="M26.20839,28.35641l.00116-.174a20.33189,20.33189,0,0,0,3.30762.31059l15.88609.16927c8.53538.09095,15.55337-5.08075,15.59587-11.49245S54.09321,5.43759,45.55783,5.34664L29.67174,5.17737a20.293,20.293,0,0,0-3.31127.24006l.00042-.06355c.00722-1.089-1.17276-1.9925-2.62239-2.00794L16.80059,3.272c-1.44944-.01545-2.64122.86278-2.64844,1.95178l-.1525,23.00253c-.00722,1.08885,1.17276,1.99235,2.62219,2.00779l6.93792.07393C25.00939,30.32349,26.20117,29.44526,26.20839,28.35641Z"/><ellipse class="cls-38" cx="34.4844" cy="8.71648" rx="0.41438" ry="1.52619" transform="translate(25.38996 43.10314) rotate(-89.37115)"/><path class="cls-38" d="M47.41063,8.799c-5.3346-.05684-9.82144.35414-9.81888-.03237s4.49356-1.42414,9.82816-1.3673,9.48332,2.60615,9.48076,2.99266S52.74524,8.85581,47.41063,8.799Z"/><g class="cls-39"><path class="cls-40" d="M27.59519,22.43184c-.23982,3.54821-.67269,5.94824-1.15153,5.94314-.70122-.00747-1.23548-5.17-1.19331-11.53093s.6448-11.51134,1.346-11.50387c.40281.00429.75054,1.70975.96554,4.36628"/><path class="cls-40" d="M27.68151,10.79956c.10746,1.75539.12284,3.86031.10818,6.07155-.01062,1.60151-.05676,3.1263-.13106,4.51135"/></g></g></g></svg>