<svg xmlns="http://www.w3.org/2000/svg" viewBox="0 0 59.17895 64.67368"><defs><style>.cls-1{fill:#f8ff66;opacity:0.88;}.cls-2{fill:#c4c151;}.cls-3{fill:#efefef;}.cls-4{fill:#424242;}</style></defs><title>normalButton</title><g id="КНОПКЕЕЕ"><ellipse class="cls-1" cx="28.50868" cy="30.82105" rx="24.74752" ry="28.86183"/><path class="cls-2" d="M43.24309,7.55379a30.696,30.696,0,0,1,9.641,22.85348c0,15.93994-11.07984,28.86182-24.74751,28.86182a22.11013,22.11013,0,0,1-13.06609-4.353,22.48639,22.48639,0,0,0,15.10622,6.00813c13.66767,0,24.7475-12.92188,24.7475-28.86182C54.92422,21.71783,50.25485,12.64934,43.24309,7.55379Z"/><path class="cls-3" d="M20.38978,55.99818c-6.37049-3.47456-11.34318-10.226-12.997-18.84948C4.55973,22.37588,12.53163,7.72165,25.19855,4.41755a20.22959,20.22959,0,0,1,12.88308.87564,20.37919,20.37919,0,0,0-15.068-1.91635C10.34672,6.68093,2.37482,21.33517,5.2079,36.108,7.04649,45.69509,12.98576,52.97078,20.38978,55.99818Z"/><rect class="cls-4" x="18.26374" y="38.76196" width="20.48988" height="2.22691"/><ellipse class="cls-4" cx="21.35891" cy="21.47783" rx="1.59661" ry="4.54214"/><ellipse class="cls-4" cx="34.99736" cy="21.47783" rx="1.59661" ry="4.54214"/></g></svg>