<svg xmlns="http://www.w3.org/2000/svg" viewBox="0 0 59.87368 64.67368"><defs><style>.cls-1{fill:#cc4040;opacity:0.88;}.cls-2{fill:#a03232;}.cls-3{fill:#efefef;}.cls-4{fill:#424242;}</style></defs><title>sadButton</title><g id="КНОПКЕЕЕ"><ellipse class="cls-1" cx="28.60155" cy="30.20041" rx="24.74752" ry="28.86183"/><path class="cls-2" d="M43.336,6.93315a30.696,30.696,0,0,1,9.641,22.85347c0,15.93994-11.07984,28.86182-24.74751,28.86182a22.11012,22.11012,0,0,1-13.06609-4.353,22.48642,22.48642,0,0,0,15.10622,6.00812c13.66767,0,24.7475-12.92188,24.7475-28.86181C55.01709,21.09718,50.34772,12.0287,43.336,6.93315Z"/><path class="cls-3" d="M20.48265,55.37753c-6.37049-3.47456-11.34318-10.226-12.997-18.84948C4.6526,21.75524,12.6245,7.101,25.29142,3.79691a20.22945,20.22945,0,0,1,12.88308.87564,20.37914,20.37914,0,0,0-15.068-1.91636C10.43959,6.06029,2.46769,20.71452,5.30077,35.48734,7.13936,45.07444,13.07863,52.35013,20.48265,55.37753Z"/><ellipse class="cls-4" cx="21.45177" cy="20.85718" rx="1.59661" ry="4.54214"/><path class="cls-4" d="M28.60151,37.26472c6.50007,0,11.86268,4.04849,12.7594,9.31031a9.20352,9.20352,0,0,0,.14662-1.55176c0-5.99886-5.77822-10.86185-12.906-10.86185s-12.90594,4.863-12.90594,10.86185a9.20355,9.20355,0,0,0,.14672,1.55176C16.739,41.31321,22.10144,37.26472,28.60151,37.26472Z"/><ellipse class="cls-4" cx="35.09023" cy="20.85718" rx="1.59661" ry="4.54214"/><polygon class="cls-4" points="24.423 14.585 18.096 21.964 17.142 20.852 23.47 13.472 24.423 14.585"/><polygon class="cls-4" points="38.006 21.537 31.678 14.158 32.632 13.046 38.959 20.425 38.006 21.537"/></g></svg>