<svg xmlns="http://www.w3.org/2000/svg" viewBox="0 0 132.88421 42.36847"><defs><style>.cls-1{fill:#4d9e64;}.cls-2{fill:#448c56;}.cls-3{fill:#86bc94;}.cls-4{opacity:0.86;font-size:18.76763px;fill:#171919;font-family:Georgia-Bold, Georgia;font-weight:700;letter-spacing:0.10001em;}</style></defs><title>Start</title><g id="КНОПКЕЕЕ"><rect class="cls-1" x="1.55044" y="1.81159" width="129.43444" height="39.30246" rx="12"/><path class="cls-2" d="M130.94931,12.53927v17.8471c0,5.89848-5.53,10.72435-12.2891,10.72435H13.87511c-6.759,0-12.2891-4.82587-12.2891-10.72435V29.13528c0,5.89827,5.53012,10.72436,12.2891,10.72436H114.59459c6.759,0,12.2891-4.82609,12.2891-10.72436v-16.596c0-5.89837-5.53012-10.72435-12.2891-10.72435h4.06562C125.41931,1.81492,130.94931,6.6409,130.94931,12.53927Z"/><path class="cls-3" d="M16.17225,4.12006c-6.759,0-12.2891,4.67185-12.2891,10.38185V29.47778c0,5.71,5.53012,10.38186,12.2891,10.38186h-2.3349c-6.759,0-12.2891-4.67186-12.2891-10.38186V12.19191c0-5.70989,5.53006-10.38185,12.2891-10.38185l104.78516.60815"/><text class="cls-4" transform="translate(25.06054 29.0116) scale(1.14591 1)">СТАРТ</text></g></svg>