<svg xmlns="http://www.w3.org/2000/svg" viewBox="0 0 132.88421 42.39561"><defs><style>.cls-1{fill:#cc4040;}.cls-2{fill:#9e3232;}.cls-3{fill:#d86666;}.cls-4{opacity:0.88;font-size:18.76763px;fill:#171919;font-family:Georgia-Bold, Georgia;font-weight:700;letter-spacing:0.10001em;}</style></defs><title>stop</title><g id="КНОПКЕЕЕ"><rect class="cls-1" x="1.55756" y="1.25595" width="129.43444" height="39.30246" rx="12"/><path class="cls-2" d="M130.95643,11.98363v17.8471c0,5.89848-5.53,10.72435-12.2891,10.72435H13.88223c-6.759,0-12.2891-4.82587-12.2891-10.72435V28.57964c0,5.89826,5.53012,10.72436,12.2891,10.72436H114.60171c6.759,0,12.2891-4.8261,12.2891-10.72436v-16.596c0-5.89837-5.53012-10.72436-12.2891-10.72436h4.06562C125.42643,1.25927,130.95643,6.08526,130.95643,11.98363Z"/><path class="cls-3" d="M16.17937,3.56441c-6.759,0-12.2891,4.67186-12.2891,10.38186V28.92214c0,5.71,5.53012,10.38186,12.2891,10.38186h-2.3349c-6.759,0-12.2891-4.67186-12.2891-10.38186V11.63627c0-5.7099,5.53006-10.38186,12.2891-10.38186l104.78516.60816"/><text class="cls-4" transform="translate(29.36238 27.69528) scale(1.14591 1)">СТОП</text></g></svg>