<svg id="Слой_1" data-name="Слой 1" xmlns="http://www.w3.org/2000/svg" viewBox="0 0 579 579"><defs><style>.cls-1{fill:#439762;}</style></defs><title>sun2</title><path class="cls-1" d="M289.505,133.99886A152.83862,152.83862,0,0,0,219.78064,150.714H359.22937A152.83863,152.83863,0,0,0,289.505,133.99886Zm114.98893,51.81689H174.51608a153.84717,153.84717,0,0,0-21.4065,31.20156H425.90042A153.84672,153.84672,0,0,0,404.49393,185.81575ZM172.1091,386.39726a154.19857,154.19857,0,0,0,36.79,31.75873H370.1109a154.19857,154.19857,0,0,0,36.79-31.75873Zm40.5119,33.98742a153.67556,153.67556,0,0,0,153.768,0Zm8.0344-67.41768H150.63017a153.363,153.363,0,0,0,19.63469,31.20157H408.74515A153.363,153.363,0,0,0,428.37984,352.967H360.99M362.5,350.73832h66.91063a151.63981,151.63981,0,0,0,10.24081-31.20157H139.35861a151.63981,151.63981,0,0,0,10.24081,31.20157h69.66305M136.01,288.33518a153.63966,153.63966,0,0,0,2.89172,28.97289H440.10828A153.63966,153.63966,0,0,0,443,288.33518Zm59.6117-35.10176H139.84335a153.56814,153.56814,0,0,0-3.82776,32.87308H442.99442a153.56814,153.56814,0,0,0-3.82776-32.87308H195.62171Zm139.29272-2.08381,51.81689-.14487h51.9116A152.51569,152.51569,0,0,0,427.0315,219.246h-275.053a152.18466,152.18466,0,0,0-11.60584,31.75874H247.4386Zm28.516-98.207H215.57958a154.04341,154.04341,0,0,0-39.041,30.6444H402.4714A154.04341,154.04341,0,0,0,363.43043,152.94266Z"/><rect class="cls-1" x="285" y="19" width="9" height="63"/><rect class="cls-1" x="287" y="491" width="9" height="63"/><rect class="cls-1" x="46" y="255" width="9" height="63" transform="translate(337 236) rotate(90)"/><rect class="cls-1" x="521" y="255" width="9" height="63" transform="translate(812 -239) rotate(90)"/><rect class="cls-1" x="115" y="84" width="9" height="63" transform="translate(285.67009 112.67157) rotate(135)"/><rect class="cls-1" x="455" y="424" width="9" height="63" transform="translate(1106.5027 452.67157) rotate(135)"/><rect class="cls-1" x="456" y="84" width="9" height="63" transform="translate(704.45184 522.79351) rotate(-135)"/><rect class="cls-1" x="115" y="431" width="9" height="63" transform="translate(-123.03763 874.03615) rotate(-135)"/></svg>