<?xml version="1.0" encoding="utf-8"?>
<!-- Generator: Adobe Illustrator 23.0.1, SVG Export Plug-In . SVG Version: 6.00 Build 0)  -->
<!DOCTYPE svg PUBLIC "-//W3C//DTD SVG 1.1//EN" "http://www.w3.org/Graphics/SVG/1.1/DTD/svg11.dtd" [
	<!ENTITY ns_extend "http://ns.adobe.com/Extensibility/1.0/">
	<!ENTITY ns_ai "http://ns.adobe.com/AdobeIllustrator/10.0/">
	<!ENTITY ns_graphs "http://ns.adobe.com/Graphs/1.0/">
	<!ENTITY ns_vars "http://ns.adobe.com/Variables/1.0/">
	<!ENTITY ns_imrep "http://ns.adobe.com/ImageReplacement/1.0/">
	<!ENTITY ns_sfw "http://ns.adobe.com/SaveForWeb/1.0/">
	<!ENTITY ns_custom "http://ns.adobe.com/GenericCustomNamespace/1.0/">
	<!ENTITY ns_adobe_xpath "http://ns.adobe.com/XPath/1.0/">
]>
<svg version="1.1" id="Слой_1" xmlns:x="&ns_extend;" xmlns:i="&ns_ai;" xmlns:graph="&ns_graphs;"
	 xmlns="http://www.w3.org/2000/svg" xmlns:xlink="http://www.w3.org/1999/xlink" x="0px" y="0px" viewBox="0 0 579 579"
	 style="enable-background:new 0 0 579 579;" xml:space="preserve">
<style type="text/css">
	.st0{fill:#A24F4F;}
	.st1{fill:#FFFFFF;}
</style>
<metadata>
	<sfw  xmlns="&ns_sfw;">
		<slices></slices>
		<sliceSourceBounds  bottomLeftOrigin="true" height="551" width="551" x="13" y="15"></sliceSourceBounds>
	</sfw>
</metadata>
<title>ViktorVerySad</title>
<path class="st0" d="M166.5,231.8l-11.7,6.1l11.7,6.1l11.7-6.1L166.5,231.8z M166.5,231.8l-11.7,6.1l11.7,6.1l11.7-6.1L166.5,231.8z
	 M166.5,231.8l-11.7,6.1l11.7,6.1l11.7-6.1L166.5,231.8z M288.5,13c-43.5-0.1-86.4,10.2-125.1,30h250.3
	C374.9,23.2,332,12.9,288.5,13z M416.5,229.9l-10.7,5.6l10.7,5.6l10.7-5.6L416.5,229.9z M416.5,229.9l-10.7,5.6l10.7,5.6l10.7-5.6
	L416.5,229.9z M166.5,231.8l-11.7,6.1l11.7,6.1l11.7-6.1L166.5,231.8z M166.5,231.8l-11.7,6.1l11.7,6.1l11.7-6.1L166.5,231.8z
	 M416.5,229.9l-10.7,5.6l10.7,5.6l10.7-5.6L416.5,229.9z M494.9,106H82.1c-15.1,17-28,35.8-38.4,56h489.6
	C522.8,141.8,509.9,123,494.9,106z M416.5,229.9l-10.7,5.6l10.7,5.6l10.7-5.6L416.5,229.9z M166.5,231.8l-11.7,6.1l11.7,6.1
	l11.7-6.1L166.5,231.8z M77.8,466c18.9,22.4,41.2,41.6,66,57h289.3c24.9-15.4,47.2-34.6,66-57H77.8z M150.5,527
	c85.4,49.3,190.6,49.3,276,0H150.5z M393,406l23,35.9H166l21-35.9H39.3c9.5,20,21.3,38.8,35.2,56h428c14-17.2,25.8-36,35.2-56H393z
	 M19,346c4.1,19.3,10.2,38,18.4,56H188l57.9-20h87.4l58.7,20h147.6c8.1-18,14.3-36.7,18.4-56H19z M13,290c0.1,17.5,1.8,34.9,5.2,52
	h540.6c3.4-17.1,5.1-34.5,5.2-52H13z M166.5,231.8l-11.7,6.1l11.7,6.1l11.7-6.1L166.5,231.8z M416.5,229.9l-10.7,5.6l10.7,5.6
	l10.7-5.6L416.5,229.9z M416.5,229.9l-10.7,5.6l10.7,5.6l10.7-5.6L416.5,229.9z M166.5,231.8l-11.7,6.1l11.7,6.1l11.7-6.1
	L166.5,231.8z M166.5,231.8l-11.7,6.1l11.7,6.1l11.7-6.1L166.5,231.8z M416.5,229.9l-10.7,5.6l10.7,5.6l10.7-5.6L416.5,229.9z
	 M416.5,229.9l-10.7,5.6l10.7,5.6l10.7-5.6L416.5,229.9z M166.5,231.8l-11.7,6.1l11.7,6.1l11.7-6.1L166.5,231.8z M166.5,231.8
	l-11.7,6.1l11.7,6.1l11.7-6.1L166.5,231.8z M416.5,229.9l-10.7,5.6l10.7,5.6l10.7-5.6L416.5,229.9z M416.5,229.9l-10.7,5.6l10.7,5.6
	l10.7-5.6L416.5,229.9z M166.5,231.8l-11.7,6.1l11.7,6.1l11.7-6.1L166.5,231.8z M166.5,231.8l-11.7,6.1l11.7,6.1l11.7-6.1
	L166.5,231.8z M416.5,229.9l-10.7,5.6l10.7,5.6l10.7-5.6L416.5,229.9z M557.1,227H463v20.8l-46.5,24.3L370,247.8V227H213v22.8
	l-46.5,24.3L120,249.8V227H19.9c-4.4,19.4-6.7,39.1-6.9,59h551C563.8,266.1,561.5,246.4,557.1,227z M556.2,223
	c-4.8-19.7-11.8-38.8-20.8-57H41.7c-9,18.2-16,37.3-20.8,57H120v-21.7l46.5-24.3l46.5,24.3V223h157v-23.7l46.5-24.3l46.5,24.3V223
	H556.2z M416.5,229.9l-10.7,5.6l10.7,5.6l10.7-5.6L416.5,229.9z M166.5,231.8l-11.7,6.1l11.7,6.1l11.7-6.1L166.5,231.8z
	 M416.5,229.9l-10.7,5.6l10.7,5.6l10.7-5.6L416.5,229.9z M416.5,229.9l-10.7,5.6l10.7,5.6l10.7-5.6L416.5,229.9z M166.5,231.8
	l-11.7,6.1l11.7,6.1l11.7-6.1L166.5,231.8z M166.5,231.8l-11.7,6.1l11.7,6.1l11.7-6.1L166.5,231.8z M416.5,229.9l-10.7,5.6l10.7,5.6
	l10.7-5.6L416.5,229.9z M416.5,229.9l-10.7,5.6l10.7,5.6l10.7-5.6L416.5,229.9z M166.5,231.8l-11.7,6.1l11.7,6.1l11.7-6.1
	L166.5,231.8z M166.5,231.8l-11.7,6.1l11.7,6.1l11.7-6.1L166.5,231.8z M416.5,229.9l-10.7,5.6l10.7,5.6l10.7-5.6L416.5,229.9z
	 M416.5,229.9l-10.7,5.6l10.7,5.6l10.7-5.6L416.5,229.9z M166.5,231.8l-11.7,6.1l11.7,6.1l11.7-6.1L166.5,231.8z M166.5,231.8
	l-11.7,6.1l11.7,6.1l11.7-6.1L166.5,231.8z M416.5,229.9l-10.7,5.6l10.7,5.6l10.7-5.6L416.5,229.9z M416.5,229.9l-10.7,5.6l10.7,5.6
	l10.7-5.6L416.5,229.9z M166.5,231.8l-11.7,6.1l11.7,6.1l11.7-6.1L166.5,231.8z M166.5,231.8l-11.7,6.1l11.7,6.1l11.7-6.1
	L166.5,231.8z M416.5,229.9l-10.7,5.6l10.7,5.6l10.7-5.6L416.5,229.9z M421.2,47H155.8c-26.2,14.4-49.8,33-70.1,55h405.5
	C471,80,447.4,61.4,421.2,47z M416.5,229.9l-10.7,5.6l10.7,5.6l10.7-5.6L416.5,229.9z M166.5,231.8l-11.7,6.1l11.7,6.1l11.7-6.1
	L166.5,231.8z M166.5,231.8l-11.7,6.1l11.7,6.1l11.7-6.1L166.5,231.8z M416.5,229.9l-10.7,5.6l10.7,5.6l10.7-5.6L416.5,229.9z
	 M416.5,229.9l-10.7,5.6l10.7,5.6l10.7-5.6L416.5,229.9z M166.5,231.8l-11.7,6.1l11.7,6.1l11.7-6.1L166.5,231.8z"/>
<polygon class="st1" points="178.2,238 166.5,244.1 154.8,238 166.5,231.8 "/>
<polygon class="st0" points="183,240.5 183,257.7 166.5,266.3 150,257.7 150,240.5 154.8,238 166.5,231.8 178.2,238 "/>
<polygon class="st1" points="427.2,235.5 416.5,241.1 405.8,235.5 416.5,229.9 "/>
<polygon class="st0" points="433,238.5 433,255.7 416.5,264.3 400,255.7 400,238.5 405.8,235.5 416.5,229.9 427.2,235.5 "/>
</svg>
