<svg id="Слой_1" data-name="Слой 1" xmlns="http://www.w3.org/2000/svg" viewBox="0 0 550.98 551"><defs><style>.cls-1{fill:#439762;}.cls-2{fill:#fff;}</style></defs><title>ViktorSad</title><path class="cls-1" d="M200.5,209.62,184,218.23v17.22l16.5,8.61,16.5-8.61V218.23Zm0,0L184,218.23v17.22l16.5,8.61,16.5-8.61V218.23Zm0,0L184,218.23v17.22l16.5,8.61,16.5-8.61V218.23ZM322.5,13A274.31,274.31,0,0,0,197.36,43H447.64A274.31,274.31,0,0,0,322.5,13Zm128,193.62L434,215.23v17.22l16.5,8.61,16.5-8.61V215.23Zm0,0L434,215.23v17.22l16.5,8.61,16.5-8.61V215.23Zm-250,3L184,218.23v17.22l16.5,8.61,16.5-8.61V218.23Zm0,0L184,218.23v17.22l16.5,8.61,16.5-8.61V218.23Zm250-3L434,215.23v17.22l16.5,8.61,16.5-8.61V215.23ZM528.88,106H116.12A276.12,276.12,0,0,0,77.7,162H567.3A276.12,276.12,0,0,0,528.88,106ZM450.5,206.62,434,215.23v17.22l16.5,8.61,16.5-8.61V215.23Zm-250,3L184,218.23v17.22l16.5,8.61,16.5-8.61V218.23ZM111.8,466a276.75,276.75,0,0,0,66,57H467.17a276.75,276.75,0,0,0,66-57Zm72.71,61a275.81,275.81,0,0,0,276,0ZM427,406l23,35.91H200L221,406H73.25a275.25,275.25,0,0,0,35.24,56h428a275.25,275.25,0,0,0,35.24-56ZM53,346A272.16,272.16,0,0,0,71.4,402H222l10-20H414l12,20H573.6A272.16,272.16,0,0,0,592,346Zm-6-56a275.75,275.75,0,0,0,5.19,52H592.8A275.75,275.75,0,0,0,598,290ZM200.5,209.62,184,218.23v17.22l16.5,8.61,16.5-8.61V218.23Zm250-3L434,215.23v17.22l16.5,8.61,16.5-8.61V215.23Zm0,0L434,215.23v17.22l16.5,8.61,16.5-8.61V215.23Zm-250,3L184,218.23v17.22l16.5,8.61,16.5-8.61V218.23Zm0,0L184,218.23v17.22l16.5,8.61,16.5-8.61V218.23Zm250-3L434,215.23v17.22l16.5,8.61,16.5-8.61V215.23Zm0,0L434,215.23v17.22l16.5,8.61,16.5-8.61V215.23Zm-250,3L184,218.23v17.22l16.5,8.61,16.5-8.61V218.23Zm0,0L184,218.23v17.22l16.5,8.61,16.5-8.61V218.23Zm250-3L434,215.23v17.22l16.5,8.61,16.5-8.61V215.23Zm0,0L434,215.23v17.22l16.5,8.61,16.5-8.61V215.23Zm-250,3L184,218.23v17.22l16.5,8.61,16.5-8.61V218.23Zm0,0L184,218.23v17.22l16.5,8.61,16.5-8.61V218.23Zm250-3L434,215.23v17.22l16.5,8.61,16.5-8.61V215.23ZM591.11,227H497v20.79l-46.5,24.27L404,247.79V227H247v22.79l-46.5,24.27L154,249.79V227H53.89A275.62,275.62,0,0,0,47,286H598A275.62,275.62,0,0,0,591.11,227ZM154,201.26,200.5,177,247,201.26V223H404V199.26L450.5,175,497,199.26V223h93.17a273.73,273.73,0,0,0-20.84-57H75.67a273.14,273.14,0,0,0-20.83,57H154Zm280,14v17.22l16.5,8.61,16.5-8.61V215.23l-16.5-8.61Zm-250,3v17.22l16.5,8.61,16.5-8.61V218.23l-16.5-8.61Zm266.5-11.61L434,215.23v17.22l16.5,8.61,16.5-8.61V215.23Zm0,0L434,215.23v17.22l16.5,8.61,16.5-8.61V215.23Zm-250,3L184,218.23v17.22l16.5,8.61,16.5-8.61V218.23Zm0,0L184,218.23v17.22l16.5,8.61,16.5-8.61V218.23Zm250-3L434,215.23v17.22l16.5,8.61,16.5-8.61V215.23Zm0,0L434,215.23v17.22l16.5,8.61,16.5-8.61V215.23Zm-250,3L184,218.23v17.22l16.5,8.61,16.5-8.61V218.23Zm0,0L184,218.23v17.22l16.5,8.61,16.5-8.61V218.23Zm250-3L434,215.23v17.22l16.5,8.61,16.5-8.61V215.23Zm0,0L434,215.23v17.22l16.5,8.61,16.5-8.61V215.23Zm-250,3L184,218.23v17.22l16.5,8.61,16.5-8.61V218.23Zm0,0L184,218.23v17.22l16.5,8.61,16.5-8.61V218.23Zm250-3L434,215.23v17.22l16.5,8.61,16.5-8.61V215.23Zm0,0L434,215.23v17.22l16.5,8.61,16.5-8.61V215.23Zm-250,3L184,218.23v17.22l16.5,8.61,16.5-8.61V218.23Zm0,0L184,218.23v17.22l16.5,8.61,16.5-8.61V218.23Zm250-3L434,215.23v17.22l16.5,8.61,16.5-8.61V215.23ZM455.18,47H189.82a276.48,276.48,0,0,0-70.07,55h405.5A276.48,276.48,0,0,0,455.18,47ZM450.5,206.62,434,215.23v17.22l16.5,8.61,16.5-8.61V215.23Zm-250,3L184,218.23v17.22l16.5,8.61,16.5-8.61V218.23Zm0,0L184,218.23v17.22l16.5,8.61,16.5-8.61V218.23Zm250-3L434,215.23v17.22l16.5,8.61,16.5-8.61V215.23Zm0,0L434,215.23v17.22l16.5,8.61,16.5-8.61V215.23Zm-250,3L184,218.23v17.22l16.5,8.61,16.5-8.61V218.23Z" transform="translate(-47.01 -13)"/><polygon class="cls-2" points="169.99 205.23 169.99 222.45 153.49 231.06 136.99 222.45 136.99 205.23 153.49 196.62 169.99 205.23"/><polygon class="cls-1" points="169.99 205.23 169.99 222.45 153.49 231.06 136.99 222.45 136.99 205.23 153.49 196.62 169.99 205.23"/><polygon class="cls-2" points="419.99 202.23 419.99 219.45 403.49 228.06 386.99 219.45 386.99 202.23 403.49 193.62 419.99 202.23"/><polygon class="cls-1" points="419.99 202.23 419.99 219.45 403.49 228.06 386.99 219.45 386.99 202.23 403.49 193.62 419.99 202.23"/></svg>