<svg id="Слой_1" data-name="Слой 1" xmlns="http://www.w3.org/2000/svg" viewBox="0 0 579 579"><defs><style>.cls-1{fill:#a24f4f;}.cls-2{fill:#fff;}</style></defs><title>ViktorVerySad</title><path class="cls-1" d="M166.5,209.62,150,218.23v17.22l16.5,8.61,16.5-8.61V218.23Zm0,0L150,218.23v17.22l16.5,8.61,16.5-8.61V218.23Zm0,0L150,218.23v17.22l16.5,8.61,16.5-8.61V218.23ZM288.5,13A274.31194,274.31194,0,0,0,163.36,43H413.64A274.31194,274.31194,0,0,0,288.5,13Zm128,193.62L400,215.23v17.22l16.5,8.61,16.5-8.61V215.23Zm0,0L400,215.23v17.22l16.5,8.61,16.5-8.61V215.23Zm-250,3L150,218.23v17.22l16.5,8.61,16.5-8.61V218.23Zm0,0L150,218.23v17.22l16.5,8.61,16.5-8.61V218.23Zm250-3L400,215.23v17.22l16.5,8.61,16.5-8.61V215.23ZM494.88,106H82.12A276.1217,276.1217,0,0,0,43.7,162H533.3A276.1217,276.1217,0,0,0,494.88,106ZM416.5,206.62,400,215.23v17.22l16.5,8.61,16.5-8.61V215.23Zm-250,3L150,218.23v17.22l16.5,8.61,16.5-8.61V218.23ZM77.8,466a276.75288,276.75288,0,0,0,66.03,57H433.17a276.75288,276.75288,0,0,0,66.03-57Zm72.71,61a275.814,275.814,0,0,0,275.98,0ZM393,406l23,35.91H166L187,406H39.25a275.25371,275.25371,0,0,0,35.24,56H502.51a275.25371,275.25371,0,0,0,35.24-56ZM19.02,346A272.1607,272.1607,0,0,0,37.4,402H188l10-20H380l12,20H539.6a272.1607,272.1607,0,0,0,18.38-56Zm-6.01-56a275.74885,275.74885,0,0,0,5.19,52H558.8a275.74885,275.74885,0,0,0,5.19-52ZM166.5,209.62,150,218.23v17.22l16.5,8.61,16.5-8.61V218.23Zm250-3L400,215.23v17.22l16.5,8.61,16.5-8.61V215.23Zm0,0L400,215.23v17.22l16.5,8.61,16.5-8.61V215.23Zm-250,3L150,218.23v17.22l16.5,8.61,16.5-8.61V218.23Zm0,0L150,218.23v17.22l16.5,8.61,16.5-8.61V218.23Zm250-3L400,215.23v17.22l16.5,8.61,16.5-8.61V215.23Zm0,0L400,215.23v17.22l16.5,8.61,16.5-8.61V215.23Zm-250,3L150,218.23v17.22l16.5,8.61,16.5-8.61V218.23Zm0,0L150,218.23v17.22l16.5,8.61,16.5-8.61V218.23Zm250-3L400,215.23v17.22l16.5,8.61,16.5-8.61V215.23Zm0,0L400,215.23v17.22l16.5,8.61,16.5-8.61V215.23Zm-250,3L150,218.23v17.22l16.5,8.61,16.5-8.61V218.23Zm0,0L150,218.23v17.22l16.5,8.61,16.5-8.61V218.23Zm250-3L400,215.23v17.22l16.5,8.61,16.5-8.61V215.23ZM557.11,227H463v20.79l-46.5,24.27L370,247.79V227H213v22.79l-46.5,24.27L120,249.79V227H19.89a275.6216,275.6216,0,0,0-6.87,59H563.98A275.6216,275.6216,0,0,0,557.11,227ZM120,201.26,166.5,177,213,201.26V223H370V199.26L416.5,175,463,199.26V223h93.17a273.73247,273.73247,0,0,0-20.84-57H41.67a273.13864,273.13864,0,0,0-20.83,57H120Zm280,13.97v17.22l16.5,8.61,16.5-8.61V215.23l-16.5-8.61Zm-250,3v17.22l16.5,8.61,16.5-8.61V218.23l-16.5-8.61Zm266.5-11.61L400,215.23v17.22l16.5,8.61,16.5-8.61V215.23Zm0,0L400,215.23v17.22l16.5,8.61,16.5-8.61V215.23Zm-250,3L150,218.23v17.22l16.5,8.61,16.5-8.61V218.23Zm0,0L150,218.23v17.22l16.5,8.61,16.5-8.61V218.23Zm250-3L400,215.23v17.22l16.5,8.61,16.5-8.61V215.23Zm0,0L400,215.23v17.22l16.5,8.61,16.5-8.61V215.23Zm-250,3L150,218.23v17.22l16.5,8.61,16.5-8.61V218.23Zm0,0L150,218.23v17.22l16.5,8.61,16.5-8.61V218.23Zm250-3L400,215.23v17.22l16.5,8.61,16.5-8.61V215.23Zm0,0L400,215.23v17.22l16.5,8.61,16.5-8.61V215.23Zm-250,3L150,218.23v17.22l16.5,8.61,16.5-8.61V218.23Zm0,0L150,218.23v17.22l16.5,8.61,16.5-8.61V218.23Zm250-3L400,215.23v17.22l16.5,8.61,16.5-8.61V215.23Zm0,0L400,215.23v17.22l16.5,8.61,16.5-8.61V215.23Zm-250,3L150,218.23v17.22l16.5,8.61,16.5-8.61V218.23Zm0,0L150,218.23v17.22l16.5,8.61,16.5-8.61V218.23Zm250-3L400,215.23v17.22l16.5,8.61,16.5-8.61V215.23ZM421.18,47H155.82a276.47386,276.47386,0,0,0-70.07,55h405.5A276.47386,276.47386,0,0,0,421.18,47ZM416.5,206.62,400,215.23v17.22l16.5,8.61,16.5-8.61V215.23Zm-250,3L150,218.23v17.22l16.5,8.61,16.5-8.61V218.23Zm0,0L150,218.23v17.22l16.5,8.61,16.5-8.61V218.23Zm250-3L400,215.23v17.22l16.5,8.61,16.5-8.61V215.23Zm0,0L400,215.23v17.22l16.5,8.61,16.5-8.61V215.23Zm-250,3L150,218.23v17.22l16.5,8.61,16.5-8.61V218.23Z"/><polygon class="cls-2" points="183 218.23 183 235.45 166.5 244.06 150 235.45 150 218.23 166.5 209.62 183 218.23"/><polygon class="cls-1" points="183 218.23 183 235.45 166.5 244.06 150 235.45 150 218.23 166.5 209.62 183 218.23"/><polygon class="cls-2" points="433 215.23 433 232.45 416.5 241.06 400 232.45 400 215.23 416.5 206.62 433 215.23"/><polygon class="cls-1" points="433 215.23 433 232.45 416.5 241.06 400 232.45 400 215.23 416.5 206.62 433 215.23"/></svg>